<svg baseProfile="tiny" xmlns="http://www.w3.org/2000/svg" width="24" height="24" fill="#fff"><path d="M17 21H9c-1.654 0-3-1.346-3-3V6c0-1.654 1.346-3 3-3h8c1.654 0 3 1.346 3 3v12c0 1.654-1.346 3-3 3zM9 5c-.551 0-1 .449-1 1v12c0 .551.449 1 1 1h8c.551 0 1-.449 1-1V6c0-.551-.449-1-1-1H9z"/><circle cx="10" cy="11" r="1"/><circle cx="13" cy="11" r="1"/><circle cx="16" cy="11" r="1"/><circle cx="10" cy="14" r="1"/><circle cx="13" cy="14" r="1"/><circle cx="16" cy="14" r="1"/><circle cx="10" cy="17" r="1"/><circle cx="13" cy="17" r="1"/><circle cx="16" cy="17" r="1"/><path d="M16 7v1h-6V7h6m1-1H9v3h8V6z"/></svg>