<svg xmlns="http://www.w3.org/2000/svg" width="15" height="16" viewBox="0 0 15 16" class="main-documents__item__icon i-file-doc"><path fill-rule="evenodd" clip-rule="evenodd" fill="#989898" d="M1.987 0v16h13V0h-13zm12 15H2.987V1h11v14z"></path><path fill-rule="evenodd" clip-rule="evenodd" fill="#008FD0" d="M.013 2h13v7h-13z"></path><g fill-rule="evenodd" clip-rule="evenodd" fill="#FFF"><path d="M1.997 4h1V3h-2v5h2V7h-1M2.997 4h1v3h-1zM4.997 4h1v3h-1zM5.997 3h1v1h-1zM6.997 4h1v3h-1zM5.997 7h1v1h-1zM8.998 4h1v3h-1zM9.998 7h2v1h-2zM9.998 3h2v1h-2z"></path></g></svg>