<svg width="195px" height="78px" viewBox="0 0 195 78" version="1.1" xmlns="http://www.w3.org/2000/svg" xmlns:xlink="http://www.w3.org/1999/xlink">
    <g id="Page-1" stroke="none" stroke-width="1" fill="none" fill-rule="evenodd">
        <g id="1" transform="translate(-42.000000, -17.000000)">
            <g id="Logo" transform="translate(42.000000, 17.000000)">
                <path d="M13.4230443,35.6982353 C10.1353233,31.0718824 8.19609526,25.4541176 7.9460878,20.0534118 C7.92991292,19.6697647 7.91760594,19.2829412 7.91760594,18.8901176 L7.91760594,18.8534118 C7.91760594,14.3685882 9.23128786,10.2822353 11.3937996,7.18129412 C12.600235,5.11729412 15.2824528,3.02470588 18.7424716,1.65352941 C17.189331,2.24294118 15.6822537,3.00494118 14.252183,3.91941176 L14.252183,3.92047059 C-10.7401233,19.2141176 2.79649687,58.5458824 13.0000359,70.6955294 C13.147368,70.8727059 14.2504248,72.0892941 14.59713,72.4298824 C21.0037907,78.7464706 30.1763567,79.7968235 35.0840276,74.7818824 C39.8700353,69.8883529 38.8070641,61.0185882 32.7819196,54.7210588 C26.4529686,47.8750588 19.2794074,44.3774118 13.4230443,35.6982353" id="Fill-1" fill="#00A0D3" ></path>
                <path d="M25.9698319,0.200470588 C25.5847993,0.210705882 25.1966021,0.233294118 24.8115695,0.266823529 C26.8801966,0.156 28.670686,0.477882353 29.8876702,1.20141176 C30.1032181,1.32635294 30.3148981,1.45517647 30.5216553,1.59988235 C31.5202786,2.28882353 32.3188257,3.18917647 32.9194062,4.24623529 C33.8839215,5.83552941 34.3614323,7.80458824 34.363542,9.96529412 C34.363542,10.02 34.3614323,10.0687059 34.3614323,10.1205882 L34.3614323,10.1269412 C34.3329504,14.5055294 32.358208,19.6478824 28.5613297,23.9435294 C28.4656869,24.0497647 28.3598469,24.1630588 28.2631492,24.2735294 C28.2631492,24.2735294 28.2620943,24.276 28.2606878,24.2781176 C27.9385966,24.6494118 27.6344385,25.0397647 27.348565,25.4541176 C23.5875527,30.8791765 24.4050876,37.9708235 29.1671846,41.2948235 C33.9310397,44.6195294 40.8401767,42.9151765 44.6001341,37.4844706 C44.7861453,37.2137647 44.9647723,36.9384706 45.1289825,36.6596471 C55.909543,19.6905882 43.372601,-0.542823529 25.9698319,0.200470588" id="Fill-2" fill="#00A0D3" ></path>
                <path d="M16.8032436,30.5809412 C17.3334985,21.5692941 23.1336011,14.5817647 29.7586228,14.9745882 C30.981233,15.0501176 32.2052498,15.4277647 33.2938899,15.9596471 C33.9904648,13.9609412 34.3501802,11.9752941 34.3614323,10.1272941 L34.3614323,9.96529412 C34.3614323,7.80564706 33.8839215,5.83552941 32.9194062,4.24623529 L32.9194062,4.24447059 C32.3153094,3.18917647 31.5192238,2.28882353 30.5216553,1.59988235 C30.3148981,1.45517647 30.1028665,1.32635294 29.8862637,1.20141176 C27.6548329,-0.124941176 23.4999974,-0.107294118 19.2256083,1.46858824 C15.5299988,2.83164706 12.6522759,5.02305882 11.3937996,7.18129412 C9.23128786,10.2822353 7.91760594,14.3675294 7.91760594,18.8534118 C7.91760594,19.2427059 7.92991292,19.6327059 7.94784594,20.0156471 C8.19609526,25.4244706 10.1353233,31.05 13.4230443,35.6862353 C16.0824063,39.6335294 19.0156864,42.5114118 22.0178857,45.1192941 C18.5680641,42.0945882 16.4438798,36.6536471 16.8032436,30.5809412" id="Fill-3" fill="#E5722A" ></path>
                <path d="M79.5121961,53.3467166 C80.9401571,53.3467166 82.4925944,52.2469519 82.4925944,49.5649519 C82.4925944,46.8773048 80.9401571,45.7800107 79.5121961,45.7800107 C78.0715765,45.7800107 76.5261718,46.8773048 76.5261718,49.5649519 C76.5261718,52.2469519 78.0715765,53.3467166 79.5121961,53.3467166 M79.5121961,43.5815401 C83.1838949,43.5815401 85.8843973,45.6945989 85.8843973,49.5649519 C85.8843973,53.4356578 83.1838949,55.5423636 79.5121961,55.5423636 C75.8288936,55.5423636 73.1326107,53.4356578 73.1326107,49.5649519 C73.1326107,45.6945989 75.8288936,43.5815401 79.5121961,43.5815401" id="Fill-4" fill="#161616" ></path>
                <path d="M109.951219,43.7664813 L99.48853,43.7664813 C99.3429561,43.7664813 99.2244575,43.8776578 99.2244575,44.0107166 L99.2244575,45.7634225 C99.2244575,45.8964813 99.3429561,46.0051872 99.48853,46.0051872 L103.090606,46.0051872 L103.090606,55.1163636 C103.090606,55.252246 103.208753,55.3605989 103.359953,55.3605989 L106.081554,55.3605989 C106.228534,55.3605989 106.34422,55.252246 106.34422,55.1163636 L106.34422,46.0051872 L109.951219,46.0051872 C110.094683,46.0051872 110.212478,45.8964813 110.212478,45.7634225 L110.212478,44.0107166 C110.212478,43.8776578 110.094683,43.7664813 109.951219,43.7664813" id="Fill-5" fill="#161616" ></path>
                <path d="M97.470889,55.3595401 C97.6115402,55.3595401 97.7325002,55.2508342 97.7325002,55.1163636 L97.7159737,53.3587166 C97.7159737,53.2260107 97.6031011,53.1155401 97.4613951,53.1155401 C97.3833337,53.1155401 95.4071847,53.1113048 94.9841764,53.1113048 C92.7137149,53.1113048 91.1802655,51.7147166 91.1802655,49.6076578 C91.1802655,47.284246 92.8512014,46.0051872 95.0284815,46.0051872 L97.2581541,46.0051872 C97.3945858,46.0051872 97.5102714,45.9028342 97.5215234,45.7771872 L97.5215234,44.0103636 C97.5215234,43.8776578 97.4037281,43.7664813 97.2581541,43.7664813 L94.4817001,43.7664813 C90.0796701,43.7664813 87.7898691,46.3613048 87.7898691,49.4537754 C87.7898691,52.5197754 90.0030152,55.3595401 94.4219233,55.3595401 L97.470889,55.3595401" id="Fill-6" fill="#161616" ></path>
                <path d="M164.410297,55.1110695 L159.386589,49.2483636 L163.301262,44.5743636 L163.294933,44.5743636 C163.294933,44.5743636 163.391631,44.4610695 163.50169,44.3294225 L163.785454,43.9969519 C163.86668,43.8776578 163.805848,43.7664813 163.628628,43.7664813 L160.604276,43.7664813 C160.456944,43.7664813 160.333171,43.8141283 160.237177,43.9094225 L156.381576,49.0277754 L156.260616,49.0277754 L156.260616,44.0107166 C156.260616,43.8776578 156.15548,43.7735401 156.017993,43.7664813 L153.275647,43.7664813 C153.132183,43.7664813 153.011223,43.8776578 153.011223,44.0107166 L153.011223,55.1163636 C153.011223,55.2529519 153.129018,55.3605989 153.275647,55.3605989 L156.001818,55.3605989 C156.143173,55.3605989 156.260616,55.2529519 156.260616,55.1163636 L156.260616,49.8091872 L156.381576,49.8091872 L160.397519,55.1731872 C160.495271,55.3094225 160.62889,55.3605989 160.800836,55.3605989 L164.261206,55.3605989 C164.453547,55.3605989 164.510159,55.2367166 164.410297,55.1110695" id="Fill-7" fill="#161616" ></path>
                <path d="M65.8292987,47.0121283 L64.2758066,47.0121283 L64.2758066,42.1545989 L65.8292987,42.1545989 C67.7825919,42.1545989 68.6683426,43.2070695 68.6683426,44.5048342 C68.6683426,45.694246 67.8789379,47.0121283 65.8292987,47.0121283 M65.8292987,39.6935401 L62.0672316,39.6935401 C61.4487181,39.7845989 60.9574939,40.252246 60.8850585,40.8377754 L60.8850585,55.1163636 C60.8850585,55.252246 60.9968762,55.3605989 61.1399888,55.3605989 L64.014547,55.3605989 C64.1587145,55.3605989 64.2758066,55.252246 64.2758066,55.1163636 L64.2758066,49.4749519 L66.4464058,49.4749519 C70.7257176,49.4749519 72.2510795,46.6567166 72.2510795,44.5969519 C72.2510795,43.6087166 71.8913641,39.6935401 65.8292987,39.6935401" id="Fill-8" fill="#161616" ></path>
                <path d="M136.047285,43.7664813 L127.745702,43.7664813 C126.97212,43.7664813 126.340596,44.362246 126.340596,45.0854225 L126.340596,49.5324813 C126.340596,51.802246 125.406321,53.0911872 123.793755,53.0911872 L123.706903,53.0911872 C123.57012,53.0961283 123.458654,53.194246 123.454083,53.3209519 L123.454083,55.1163636 C123.454083,55.246246 123.559923,55.3475401 123.69319,55.3595401 C123.856697,55.3595401 124.101078,55.3553048 124.402423,55.3553048 C126.099731,55.3553048 129.235197,54.5590695 129.235197,49.5324813 L129.235197,46.0051872 L133.05247,46.0051872 L133.05247,55.1163636 C133.05247,55.252246 133.168156,55.3605989 133.307049,55.3605989 L136.038495,55.3605989 C136.181607,55.3605989 136.297644,55.252246 136.297644,55.1163636 L136.297644,44.0107166 C136.297644,43.8776578 136.18864,43.7724813 136.047285,43.7664813" id="Fill-9" fill="#161616" ></path>
                <path d="M194.991026,45.9056578 L194.991026,45.0917754 C194.991026,44.3714225 194.355634,43.7735401 193.58803,43.7735401 L191.024663,43.7735401 C190.902999,43.7925989 190.789072,43.8384813 190.683935,43.9867166 L187.087485,49.2420107 L183.526197,43.990246 L183.526197,43.9867166 C183.368316,43.7661283 183.189689,43.7661283 183.005436,43.7661283 L180.614015,43.7661283 C179.841488,43.7661283 179.209261,44.362246 179.209261,45.0861283 L179.209261,55.1287166 C179.214536,55.258246 179.327408,55.3605989 179.468411,55.3605989 L182.194934,55.3605989 C182.335233,55.3605989 182.45338,55.252246 182.45338,55.1163636 L182.458303,48.7584813 L182.387274,46.396246 L182.505421,46.396246 L186.697529,52.6867166 C186.919407,53.0008342 187.31112,52.9948342 187.514713,52.6831872 L191.70014,46.396246 L191.822155,46.396246 L191.749719,48.7584813 L191.749719,55.1163636 C191.749719,55.252246 191.863647,55.3605989 192.009221,55.3605989 L194.737502,55.3605989 C194.878856,55.3605989 194.991026,55.252246 194.991026,55.1163636 L194.991026,45.9056578" id="Fill-10" fill="#161616" ></path>
                <path d="M170.772301,53.3467166 C172.209404,53.3467166 173.754457,52.2469519 173.754457,49.5649519 C173.754457,46.8773048 172.209404,45.7800107 170.772301,45.7800107 C169.335901,45.7800107 167.789441,46.8773048 167.789441,49.5649519 C167.789441,52.2469519 169.335901,53.3467166 170.772301,53.3467166 M170.772301,43.5815401 C174.45068,43.5815401 177.150831,45.6945989 177.150831,49.5649519 C177.150831,53.4356578 174.45068,55.5423636 170.772301,55.5423636 C167.093921,55.5423636 164.4001,53.4356578 164.4001,49.5649519 C164.4001,45.6945989 167.093921,43.5815401 170.772301,43.5815401" id="Fill-11" fill="#161616" ></path>
                <path d="M117.106847,45.6945989 C118.299921,45.6945989 119.713465,46.4523636 119.663534,48.4037754 L114.575829,48.4037754 C114.601498,46.8773048 115.67326,45.6945989 117.106847,45.6945989 M121.369632,53.0961283 L118.70148,53.0961283 C116.490443,53.0961283 114.672527,51.9600107 114.575829,50.482246 L121.448397,50.482246 C122.216704,50.482246 122.854206,49.8868342 122.854206,49.1661283 L122.854206,48.9028342 C122.713554,47.0848342 121.914656,43.5811872 117.298836,43.5811872 C113.980172,43.5811872 111.182972,45.8283636 111.182972,49.5649519 C111.182972,53.6594225 114.8719,55.3605989 118.574542,55.3605989 L121.369632,55.3605989 C121.505009,55.3605989 121.625618,55.258246 121.628782,55.1287166 L121.628782,53.313893 C121.61542,53.194246 121.505009,53.0961283 121.369632,53.0961283" id="Fill-12" fill="#161616" ></path>
                <path d="M144.559846,45.6945989 C145.758897,45.6945989 147.164002,46.4523636 147.118642,48.4037754 L142.033751,48.4037754 C142.056606,46.8773048 143.130478,45.6945989 144.559846,45.6945989 M149.071583,52.833893 C149.071583,52.833893 147.400999,52.9796578 146.150962,52.9796578 C143.942739,52.9796578 142.122712,51.9600107 142.033751,50.482246 L148.921087,50.482246 C149.686229,50.482246 150.322676,49.8900107 150.328653,49.1675401 C150.238285,47.4550695 149.607113,43.5811872 144.750428,43.5811872 C141.43317,43.5811872 138.641948,45.8283636 138.641948,49.5649519 C138.641948,53.6594225 142.311185,55.3605989 146.027541,55.3605989 C147.472028,55.3605989 149.071583,55.2120107 149.071583,55.2120107 C149.20907,55.2120107 149.32792,55.1093048 149.329327,54.9811872 L149.329327,53.0555401 C149.316668,52.9295401 149.20907,52.833893 149.071583,52.833893" id="Fill-13" fill="#161616" ></path>
            </g>
        </g>
    </g>
</svg>