<svg xmlns="http://www.w3.org/2000/svg" width="15" height="16" viewBox="0 0 15 16" class="main-documents__item__icon i-file-pdf"><path fill-rule="evenodd" clip-rule="evenodd" fill="#989898" d="M1.987 0v16h13V0h-13zm12 15h-11V1h11v14z"></path><path fill-rule="evenodd" clip-rule="evenodd" fill="#ED1943" d="M.013 2h13v7h-13z"></path><g fill-rule="evenodd" clip-rule="evenodd" fill="#FFF"><path d="M12.013 4V3h-3v5h1V6h1V5h-1V4M6.013 4h1V3h-2v5h2V7h-1M7.013 4h1v3h-1zM2.013 4h1V3h-2v5h1V7h1V6h-1M3.013 4h1v2h-1z"></path></g></svg>