<svg xmlns="http://www.w3.org/2000/svg" width="25" height="36" viewBox="0 0 25 36" class="introduce__list__item__icon i-common-objects"><path d="M12.507.042c-6.925 0-12.56 5.36-12.56 11.946 0 10.604 12.358 23.98 12.56 23.98h.003c.202-.002 12.555-13.62 12.555-23.98 0-6.586-5.633-11.946-12.558-11.946zm-.02 31.426c-3.38-4.1-9.524-12.718-9.524-19.48 0-4.936 4.28-8.952 9.544-8.952 5.262 0 9.545 4.016 9.545 8.952 0 6.542-6.196 15.318-9.565 19.48zm.02-23.748c-2.792 0-5.055 2.248-5.055 5.02s2.264 5.022 5.055 5.022c2.79 0 5.054-2.248 5.054-5.02S15.3 7.72 12.508 7.72zm0 9.044c-2.233 0-4.05-1.805-4.05-4.023 0-2.217 1.817-4.022 4.05-4.022 2.233 0 4.05 1.805 4.05 4.023s-1.817 4.024-4.05 4.024z"></path></svg>