<svg xmlns="http://www.w3.org/2000/svg" width="16" height="16" viewBox="0 0 16 16" class="button__icon i-common-search"><path d="M.285 13.66l4.062-4.092c-.58-.953-.93-2.063-.93-3.265C3.416 2.823 6.22 0 9.676 0c3.458 0 6.26 2.823 6.26 6.304 0 3.48-2.802 6.305-6.26 6.305-1.192 0-2.295-.357-3.243-.938l-4.06 4.09c-.287.286-.76.284-1.045 0L.284 14.71c-.285-.287-.285-.764 0-1.05zm9.392-3.154c2.306 0 4.175-1.882 4.175-4.202 0-2.32-1.87-4.203-4.175-4.203-2.305 0-4.173 1.883-4.173 4.204 0 2.32 1.868 4.202 4.173 4.202z"></path></svg>