<svg width="32px" height="32px" viewBox="0 0 32 32" version="1.1" xmlns="http://www.w3.org/2000/svg" xmlns:xlink="http://www.w3.org/1999/xlink" class="introduce__list__item__icon i-common-unclaimed_property">
    <!-- Generator: Sketch 46.2 (44496) - http://www.bohemiancoding.com/sketch -->
    <title>noun_223956_cc</title>
    <desc>Created with Sketch.</desc>
    <defs>
        <polygon id="path-1" points="3.38154547 0.0110769231 0.00124612895 0.0110769231 0.00124612895 5.97584553 3.38154547 5.97584553 3.38154547 0.0110769231"></polygon>
    </defs>
    <g id="Page-1" stroke="none" stroke-width="1" fill="none" fill-rule="evenodd">
        <g id="index1" transform="translate(-1141.000000, -459.000000)">
            <g id="Group-3" transform="translate(1052.000000, 419.000000)">
                <g id="noun_223956_cc" transform="translate(89.000000, 40.000000)">
                    <path d="M31.789011,27.5692308 C31.6483516,27.2175824 31.4373626,26.8659341 31.1208791,26.5846154 L23.032967,18.4967033 C23.5252747,17.6527473 23.9472527,16.7384615 24.2285714,15.789011 C24.5802198,14.6637363 24.756044,13.4681319 24.756044,12.2373626 C24.756044,10.5494505 24.4043956,8.93186813 23.8065934,7.49010989 C22.8923077,5.30989011 21.3450549,3.44615385 19.3758242,2.10989011 C18.3912088,1.44175824 17.3362637,0.914285714 16.1758242,0.562637363 C15.0153846,0.210989011 13.8197802,0 12.5538462,0 C10.8659341,0 9.24835165,0.351648352 7.80659341,0.949450549 C5.62637363,1.86373626 3.76263736,3.41098901 2.42637363,5.38021978 C1.75824176,6.36483516 1.23076923,7.41978022 0.879120879,8.58021978 C0.527472527,9.74065934 0.316483516,10.9362637 0.316483516,12.2021978 C0.316483516,13.8901099 0.668131868,15.5076923 1.26593407,16.9494505 C2.18021978,19.1296703 3.72747253,20.9934066 5.6967033,22.3296703 C6.68131868,22.9978022 7.73626374,23.5252747 8.8967033,23.8769231 C10.0571429,24.2285714 11.2527473,24.4395604 12.5186813,24.4395604 C13.7494505,24.4395604 14.9450549,24.2637363 16.0703297,23.9120879 C17.0197802,23.6307692 17.9340659,23.2087912 18.778022,22.7164835 L26.8659341,30.8043956 C27.1472527,31.0857143 27.4989011,31.3318681 27.8505495,31.4725275 C28.2021978,31.6131868 28.589011,31.6835165 28.9758242,31.6835165 C29.3626374,31.6835165 29.7494505,31.6131868 30.1010989,31.4725275 C30.4527473,31.3318681 30.8043956,31.1208791 31.0857143,30.8043956 C31.367033,30.5230769 31.578022,30.1714286 31.7538462,29.8197802 C31.8945055,29.4681319 31.9648352,29.0813187 31.9648352,28.6945055 C32.0351648,28.3076923 31.9296703,27.9208791 31.789011,27.5692308 Z M15.367033,21.4505495 C14.4879121,21.7318681 13.5384615,21.8725275 12.589011,21.8725275 C11.2527473,21.8725275 9.98681319,21.5912088 8.86153846,21.1340659 C7.13846154,20.3956044 5.66153846,19.2 4.64175824,17.6527473 C4.11428571,16.8791209 3.72747253,16.0351648 3.44615385,15.1208791 C3.16483516,14.2065934 3.02417582,13.2571429 3.02417582,12.2725275 C3.02417582,10.9362637 3.30549451,9.67032967 3.76263736,8.54505495 C4.5010989,6.82197802 5.6967033,5.34505495 7.24395604,4.32527473 C8.01758242,3.7978022 8.86153846,3.41098901 9.77582418,3.12967033 C10.6901099,2.84835165 11.6395604,2.70769231 12.6241758,2.70769231 C13.9604396,2.70769231 15.2263736,2.98901099 16.3516484,3.44615385 C18.0747253,4.18461538 19.5516484,5.38021978 20.5714286,6.92747253 C21.0989011,7.7010989 21.4857143,8.54505495 21.767033,9.45934066 C22.0483516,10.3736264 22.189011,11.3230769 22.189011,12.3076923 C22.189011,13.2923077 22.0483516,14.2065934 21.767033,15.0857143 C21.4857143,15.9648352 21.0989011,16.8087912 20.6065934,17.5472527 C19.8681319,18.6725275 18.9186813,19.621978 17.7934066,20.3604396 L17.7934066,20.3604396 C17.0901099,20.7824176 16.2461538,21.1692308 15.367033,21.4505495 Z M30.4175824,29.2571429 C30.3472527,29.432967 30.2417582,29.6087912 30.1010989,29.7494505 C29.9604396,29.8901099 29.7846154,29.9956044 29.6087912,30.0659341 C29.432967,30.1362637 29.221978,30.1714286 29.0461538,30.1714286 C28.8351648,30.1714286 28.6593407,30.1362637 28.4835165,30.0659341 C28.3076923,29.9956044 28.1318681,29.8901099 27.9912088,29.7494505 L20.0791209,21.8725275 C20.8879121,21.2395604 21.5912088,20.5362637 22.2241758,19.7274725 L30.1010989,27.6043956 C30.2417582,27.7450549 30.3472527,27.9208791 30.4175824,28.0967033 C30.4879121,28.2725275 30.5230769,28.4835165 30.5230769,28.6593407 C30.5230769,28.8703297 30.4879121,29.0813187 30.4175824,29.2571429 Z" id="Shape" fill="#3499FF" fill-rule="nonzero"></path>
                    <g id="Group-8" transform="translate(8.000000, 7.000000)">
                        <g id="Group-3" transform="translate(0.699951, 0.220001)" fill="#3499FF">
                            <path d="M1.85977482,4.80558462 C1.40255159,4.16104615 1.13289927,3.37835385 1.09816958,2.62589231 C1.09587467,2.57250769 1.09411523,2.51858462 1.09411523,2.46389231 L1.09411523,2.46050769 L1.09411523,2.45873846 C1.09411523,1.83389231 1.27686683,1.26458462 1.57757698,0.832584615 C1.74533514,0.544969231 2.11833506,0.253430769 2.59957839,0.0624307692 C2.38355054,0.144507692 2.17394846,0.250661538 1.97505597,0.378046154 L1.97505597,0.3782 C-1.50059029,2.50904615 0.382003625,7.98881538 1.80094854,9.68150769 C1.82144977,9.7062 1.97482648,9.87566154 2.02309616,9.92312308 C2.91405801,10.8032 4.18964734,10.9495077 4.87215457,10.2508154 C5.53775594,9.56904615 5.38988702,8.33327692 4.55201416,7.45589231 C3.6718384,6.50212308 2.67423957,6.01481538 1.85977482,4.80558462" id="Fill-1"></path>
                        </g>
                        <g id="Group-6" transform="translate(4.440233, 0.065846)">
                            <mask id="mask-2" fill="white">
                                <use xlink:href="#path-1"></use>
                            </mask>
                            <g id="Clip-5"></g>
                            <path d="M0.162172598,0.0138153846 C0.108657857,0.0152769231 0.0546844195,0.0184307692 0.00124612895,0.0230461538 C0.288696733,0.00758461538 0.537540275,0.0524307692 0.706723303,0.1532 C0.736615108,0.170661538 0.766048215,0.188661538 0.794793276,0.208738462 C0.933549352,0.304738462 1.04455421,0.4302 1.12803721,0.577430769 C1.26205341,0.798892308 1.32848813,1.0732 1.32871748,1.37427692 C1.32871748,1.38189231 1.32848813,1.38866154 1.32848813,1.39589231 L1.32848813,1.39681538 C1.32451275,2.00681538 1.05005859,2.72327692 0.522326799,3.32173846 C0.509024563,3.33650769 0.494346235,3.35227692 0.4808911,3.36773846 C0.4808911,3.36773846 0.480738201,3.36804615 0.480585301,3.36835385 C0.435785819,3.42004615 0.393509174,3.47443077 0.353755367,3.5322 C-0.168930745,4.28796923 -0.0552501467,5.27604615 0.60657429,5.7392 C1.26862807,6.20235385 2.22891186,5.96489231 2.75144507,5.20827692 C2.77728505,5.17058462 2.80213118,5.1322 2.82498962,5.09335385 C4.32324944,2.7292 2.5808095,-0.0898 0.162172598,0.0138153846" id="Fill-4" stroke="#FFFFFF" stroke-width="0.5" fill="#3499FF" mask="url(#mask-2)"></path>
                        </g>
                        <path d="M3.32840341,4.31231538 C3.40210085,3.05685385 4.20818574,2.08323846 5.12894507,2.13800769 C5.29889259,2.14854615 5.46899301,2.20116154 5.62036328,2.27531538 C5.71714851,1.99677692 5.76707012,1.72016154 5.76867556,1.4627 L5.76867556,1.46162308 L5.76867556,1.44008462 C5.76867556,1.13923846 5.70231728,0.864776923 5.56822463,0.643315385 L5.56822463,0.643084615 C5.48435939,0.496084615 5.37366033,0.370623077 5.2349807,0.274623077 C5.20631209,0.254469231 5.17680253,0.236546154 5.14675783,0.219084615 C4.83660168,0.0343153846 4.25917764,0.0367769231 3.66508757,0.256315385 C3.15149897,0.446238462 2.75151451,0.751546154 2.57659776,1.05223846 C2.27607427,1.48423846 2.09343611,2.05346923 2.09343611,2.67846923 C2.09343611,2.7327 2.09519445,2.78700769 2.09764083,2.84031538 C2.13219607,3.59393077 2.40168101,4.3777 2.85862044,5.02362308 C3.22817795,5.57354615 3.63588382,5.97446923 4.05314589,6.33785385 C3.57365382,5.91646923 3.2784818,5.15839231 3.32840341,4.31231538" id="Fill-7" stroke="#FFFFFF" stroke-width="0.400000006" fill="#3499FF"></path>
                    </g>
                </g>
            </g>
        </g>
    </g>
</svg>